<svg width="172" height="40" viewBox="0 0 172 40" fill="none" xmlns="http://www.w3.org/2000/svg">
<path fill-rule="evenodd" clip-rule="evenodd" d="M141.604 19.5358C136.281 19.5358 131.967 15.2211 131.967 9.89816C131.967 4.57526 136.281 0.260498 141.604 0.260498C146.926 0.260498 151.241 4.57526 151.241 9.89816C151.241 15.2211 146.926 19.5358 141.604 19.5358ZM127.245 22.5067C127.245 19.1637 125.054 16.7502 122.084 16.7502C119.112 16.7502 116.995 19.1273 116.995 22.5067C116.995 25.886 119.112 28.3004 122.084 28.3004C125.054 28.3004 127.245 25.886 127.245 22.5067ZM116.809 29.5256L116.215 31.7912H112.539V5.79407H116.995V15.3386C117.997 14.0392 119.929 12.7393 122.752 12.7393C128.063 12.7393 131.702 17.0844 131.702 22.5067C131.702 27.9289 127.877 32.3112 122.714 32.3112C119.632 32.3112 117.738 30.7518 116.809 29.5256ZM80.5331 16.4157C77.5245 16.4157 75.8537 18.4586 75.4451 20.5751H85.324C85.2125 18.9044 83.7269 16.4157 80.5331 16.4157ZM75.4079 23.9923C75.5937 26.3323 77.5993 28.6345 80.5331 28.6345C83.1326 28.6345 84.6182 27.0746 85.064 25.8118L88.8154 26.9631C87.7382 29.9346 85.064 32.3111 80.5331 32.3111C75.2222 32.3111 71.1371 28.2266 71.1371 22.5065C71.1371 16.8986 75.2222 12.7392 80.4959 12.7392C85.8811 12.7392 89.2606 16.6385 89.2606 22.2843V23.9923H75.4079ZM44.5507 22.5067C44.5507 19.2386 42.3227 16.8615 39.3513 16.8615C36.3433 16.8615 34.1891 19.2386 34.1891 22.5067C34.1891 25.8118 36.3433 28.1889 39.3513 28.1889C42.3227 28.1889 44.5507 25.8118 44.5507 22.5067ZM29.7325 22.5067C29.7325 17.0472 33.8176 12.7393 39.3513 12.7393C44.9222 12.7393 49.0078 17.0472 49.0078 22.5067C49.0078 28.0032 44.9222 32.3112 39.3513 32.3112C33.7433 32.3112 29.7325 28.0032 29.7325 22.5067ZM0 13.2589H3.67658L4.27087 15.4503C5.38517 13.9647 7.35377 12.7395 9.99032 12.7395C12.7754 12.7395 14.2616 14.076 15.004 15.5246C16.1554 14.0389 18.0868 12.7395 20.9463 12.7395C24.4 12.7395 26.9257 14.7817 26.9257 19.5354V31.7914H22.4691V20.7612C22.4691 17.9383 21.2435 16.8618 19.3119 16.8618C17.2697 16.8618 15.7098 18.3475 15.7098 21.2812V31.7914H11.2532V20.7612C11.2532 17.9383 9.91605 16.8618 8.05938 16.8618C6.05373 16.8618 4.45661 18.3098 4.45661 21.2812V31.7914H0V13.2589ZM55.5175 13.2589H51.8403V31.7914H56.2969V21.6155C56.2969 18.4589 58.1169 16.8618 60.3827 16.8618C62.462 16.8618 63.9848 17.9017 63.9848 21.1697V31.7914H68.4415V20.5755C68.4415 15.1532 65.9907 12.7395 61.7934 12.7395C59.0454 12.7395 57.2998 13.9647 56.1489 15.4875L55.5175 13.2589ZM108.814 31.0858V13.2589H104.357V22.7298C104.357 25.8492 102.538 27.4457 100.123 27.4457C97.8951 27.4457 96.4095 26.4064 96.4095 23.0635V13.2589H91.9529V23.8069C91.9529 29.2285 94.6637 31.6057 98.7123 31.6057C101.535 31.6057 103.057 30.5658 104.32 29.0429L104.357 29.1542V31.1228C104.357 34.2428 102.686 35.9137 99.9746 35.9137C97.6357 35.9137 96.4095 34.7994 96.0386 32.98L91.8786 33.8343C92.77 37.1394 95.2952 39.7395 99.9746 39.7395C105.583 39.7395 108.814 36.2852 108.814 31.0858ZM162.144 25.6633L166.489 31.7913H171.429L164.669 22.3952L171.242 13.2588H166.34L162.144 19.1638L157.947 13.2588H152.97L159.618 22.4324L152.896 31.7913H157.798L162.144 25.6633ZM141.604 22.1542C146.926 22.1542 151.241 26.469 151.241 31.7913H131.967C131.967 26.469 136.281 22.1542 141.604 22.1542Z" fill="#00C2B5"/>
</svg>
